<?xml version="1.0"?>
<svg xmlns="http://www.w3.org/2000/svg" id="Layer_1" data-name="Layer 1" viewBox="0 0 128 128" width="512" height="512"><title>DRINK TUBE</title><ellipse cx="63.999" cy="32.302" rx="22.96" ry="3.684" style="fill:#fff"/><path d="M64,35.986c-12.68,0-22.959-1.649-22.959-3.684v73.847c0,2.035,10.279,3.684,22.959,3.684s22.959-1.649,22.959-3.684V32.3C86.959,34.336,76.68,35.986,64,35.986Z" style="fill:#d0e8c6"/><path d="M64,18.166h0a5.012,5.012,0,0,0-5.012,5.012v8.1H69.011v-8.1A5.012,5.012,0,0,0,64,18.166Z" style="fill:#fff"/><path d="M74.754,61.043C72.545,55.3,68.561,51.449,64,51.449s-8.545,3.85-10.755,9.594c-7.259-.619-12.2-1.844-12.2-3.255V77.15c0,1.38,4.733,2.582,11.734,3.213C54.853,86.839,59.093,91.286,64,91.286s9.146-4.447,11.225-10.922c7-.631,11.734-1.833,11.734-3.213V57.789C86.959,59.2,82.013,60.425,74.754,61.043Z" style="fill:#ffee98"/><path d="M79.75,34.981v73.847c4.436-.672,7.209-1.623,7.209-2.679V32.3C86.959,33.358,84.186,34.309,79.75,34.981Z" style="fill:#9ecf89"/><path d="M79.75,60.468V79.827c4.434-.671,7.209-1.622,7.209-2.677V57.789C86.959,58.845,84.188,59.8,79.75,60.468Z" style="fill:#ffe14a"/><path d="M86.96,38.052a1.25,1.25,0,0,0-1.25,1.25V57.561c-.557.45-3.156,1.492-10.146,2.155C73.008,53.737,68.733,50.2,64,50.2s-9.007,3.538-11.565,9.516c-1.924-.182-3.659-.408-5.169-.673a1.25,1.25,0,1,0-.432,2.463c1.818.319,3.939.583,6.3.784a1.254,1.254,0,0,0,1.273-.8C56.5,56.068,60.173,52.7,64,52.7s7.5,3.369,9.588,8.793a1.251,1.251,0,0,0,1.166.8c.036,0,.071,0,.107,0,5.716-.487,8.98-1.214,10.849-1.958V76.922c-.565.454-3.255,1.535-10.6,2.2a1.25,1.25,0,0,0,.111,2.5c.037,0,.075,0,.113,0,5.423-.489,8.556-1.182,10.372-1.894V105.93c-1.267,1.115-9.452,2.654-21.71,2.654s-20.443-1.539-21.71-2.654V79.716a38.005,38.005,0,0,0,9.56,1.816c2.418,6.811,7.021,11,12.15,11,3.905,0,7.637-2.51,10.236-6.887a1.25,1.25,0,1,0-2.148-1.277c-2.17,3.653-5.042,5.664-8.088,5.664-4.2,0-8.044-3.853-10.035-10.055a1.25,1.25,0,0,0-1.078-.863c-7.341-.661-10.031-1.742-10.6-2.2V59.25a1.25,1.25,0,0,0-2.5,0v46.9c0,4.7,20.167,4.934,24.21,4.934s24.21-.238,24.21-4.934V39.3A1.25,1.25,0,0,0,86.96,38.052Z" style="fill:#092d4b"/><path d="M41.04,55a1.25,1.25,0,0,0,1.25-1.25v-1a1.25,1.25,0,0,0-2.5,0v1A1.25,1.25,0,0,0,41.04,55Z" style="fill:#092d4b"/><path d="M41.04,49.625a1.25,1.25,0,0,0,1.25-1.25V34.781C47.817,37.09,60.838,37.236,64,37.236c4.043,0,24.21-.238,24.21-4.934,0-3.282-9.487-4.427-17.948-4.8V23.178a6.262,6.262,0,1,0-12.523,0v8.1a1.25,1.25,0,0,0,1.25,1.25H69.012a1.25,1.25,0,0,0,1.25-1.25V30.01c9.086.412,13.694,1.567,15.106,2.3C83.342,33.4,75.446,34.736,64,34.736S44.674,33.4,42.638,32.313c1.1-.567,4.325-1.537,11.609-2.092a1.25,1.25,0,0,0-.189-2.493C39.79,28.815,39.79,31.349,39.79,32.3V48.375A1.25,1.25,0,0,0,41.04,49.625Zm26.722-19.6H60.238V23.178a3.762,3.762,0,1,1,7.523,0Z" style="fill:#092d4b"/></svg>
