<?xml version="1.0" encoding="iso-8859-1"?>
<!-- Generator: Adobe Illustrator 19.0.0, SVG Export Plug-In . SVG Version: 6.00 Build 0)  -->
<svg version="1.1" id="Capa_1" xmlns="http://www.w3.org/2000/svg" xmlns:xlink="http://www.w3.org/1999/xlink" x="0px" y="0px"
	 viewBox="0 0 500.278 500.278" style="enable-background:new 0 0 500.278 500.278;" xml:space="preserve">
<polyline style="fill:#F04B4D;" points="331.594,302.46 331.594,500.278 250.139,453.733 168.685,500.278 168.685,302.46 "/>
<path style="fill:#DE333F;" d="M250.139,302.46h81.455v37.236c-5.818,3.491-10.473,8.145-12.8,13.964l0,0
	c-9.309,18.618-32.582,24.436-50.036,12.8c-5.818-3.491-12.8-5.818-18.618-5.818v91.927l-81.455,46.545V339.696V302.46H250.139z"/>
<path style="fill:#FFCB5B;" d="M268.757,5.733L268.757,5.733c17.455-10.473,40.727-4.655,50.036,12.8l0,0
	c5.818,11.636,18.618,19.782,32.582,18.618l0,0c20.945-1.164,37.236,16.291,36.073,36.073l0,0
	c-1.164,13.964,6.982,26.764,18.618,32.582l0,0c18.618,9.309,24.436,32.582,12.8,50.036l0,0c-6.982,11.636-6.982,25.6,0,37.236l0,0
	c10.473,17.455,4.655,40.727-12.8,50.036l0,0c-11.636,5.818-19.782,18.618-18.618,32.582l0,0
	c1.164,20.945-16.291,37.236-36.073,36.073l0,0c-13.964-1.164-26.764,6.982-32.582,18.618l0,0
	c-9.309,18.618-32.582,24.436-50.036,12.8l0,0c-11.636-6.982-25.6-6.982-37.236,0l0,0c-17.455,10.473-40.727,4.655-50.036-12.8l0,0
	c-5.818-11.636-18.618-19.782-32.582-18.618l0,0c-20.945,1.164-37.236-16.291-36.073-36.073l0,0
	c1.164-13.964-6.982-26.764-18.618-32.582l0,0c-18.618-9.309-24.436-32.582-12.8-50.036l0,0c6.982-11.636,6.982-25.6,0-37.236l0,0
	c-10.473-17.455-4.655-40.727,12.8-50.036l0,0c11.636-5.818,19.782-18.618,18.618-32.582l0,0
	c-1.164-20.945,16.291-37.236,36.073-36.073l0,0c13.964,1.164,26.764-6.982,32.582-18.618l0,0
	c9.309-17.455,32.582-24.436,50.036-12.8l0,0C243.157,12.715,257.121,12.715,268.757,5.733z"/>
<circle style="fill:#F19920;" cx="250.139" cy="174.46" r="116.364"/>
<path style="fill:#F6B545;" d="M250.139,34.824c-76.8,0-139.636,62.836-139.636,139.636s62.836,139.636,139.636,139.636
	S389.776,251.26,389.776,174.46S326.939,34.824,250.139,34.824z M250.139,290.824c-64,0-116.364-52.364-116.364-116.364
	S186.139,58.096,250.139,58.096S366.503,110.46,366.503,174.46S314.139,290.824,250.139,290.824z"/>
<path style="fill:#FFE27A;" d="M351.376,37.151c-13.964,1.164-26.764-6.982-32.582-18.618l0,0c-1.164-1.164-2.327-3.491-3.491-4.655
	L102.357,248.933c6.982,6.982,11.636,16.291,10.473,26.764l0,0c0,6.982,1.164,13.964,4.655,19.782L352.539,37.151
	C351.376,37.151,351.376,37.151,351.376,37.151z"/>
<path style="fill:#F6B545;" d="M138.43,208.206c4.655,15.127,11.636,27.927,22.109,40.727L315.303,77.878
	c-12.8-8.145-26.764-13.964-41.891-17.455L138.43,208.206z"/>
<g>
	<path style="fill:#FFCB5B;" d="M144.248,266.387l15.127-17.455c-9.309-11.636-17.455-25.6-22.109-40.727l-17.455,19.782
		C126.794,241.951,134.939,254.751,144.248,266.387z"/>
	<path style="fill:#FFCB5B;" d="M273.412,60.424c15.127,3.491,29.091,9.309,41.891,17.455l16.291-17.455
		c-11.636-8.145-25.6-15.127-39.564-19.782L273.412,60.424z"/>
</g>
<path style="fill:#FFE27A;" d="M406.066,105.806c-11.636-5.818-19.782-18.618-18.618-32.582l0,0
	c1.164-12.8-5.818-24.436-16.291-31.418L130.285,307.115c5.818,3.491,11.636,4.655,18.618,4.655
	c13.964-1.164,26.764,6.982,32.582,18.618l0,0c2.327,4.655,5.818,9.309,10.473,11.636L406.066,105.806L406.066,105.806z"/>
<path style="fill:#F6B545;" d="M238.503,290.824l125.673-137.309c-4.655-24.436-17.455-46.545-34.909-62.836L172.176,260.569
	C190.794,276.86,214.066,287.333,238.503,290.824z"/>
<g>
	<path style="fill:#FFCB5B;" d="M238.503,290.824c-25.6-2.327-48.873-12.8-66.327-29.091l-15.127,16.291
		c17.455,16.291,39.564,27.927,64,32.582L238.503,290.824z"/>
	<path style="fill:#FFCB5B;" d="M344.394,72.06l-15.127,17.455c17.455,16.291,30.255,38.4,34.909,62.836l18.618-20.945
		C375.812,108.133,361.848,88.351,344.394,72.06z"/>
</g>
<path style="fill:#FFEDA9;" d="M290.866,244.278c-1.164,0-1.164,0-2.327,0l-38.4-22.109l-38.4,20.945
	c-1.164,1.164-3.491,1.164-4.655,0c-1.164-1.164-2.327-2.327-1.164-4.655l6.982-45.382l-31.418-31.418
	c-1.164,0-1.164-2.327-1.164-3.491s2.327-2.327,3.491-3.491l43.055-6.982l19.782-40.727c1.164-1.164,2.327-2.327,3.491-2.327l0,0
	c1.164,0,3.491,1.164,3.491,2.327l19.782,40.727l43.055,6.982c1.164,0,3.491,1.164,3.491,3.491c0,1.164,0,3.491-1.164,4.655
	l-31.418,31.418l6.982,45.382c0,1.164,0,3.491-1.164,4.655C292.03,244.278,292.03,244.278,290.866,244.278z"/>
<g>
	<path style="fill:#FFFCD5;" d="M253.63,106.969c-1.164-1.164-2.327-2.327-3.491-2.327c-1.164,0-3.491,1.164-3.491,2.327
		l-19.782,40.727l-38.4,5.818l-6.982,8.145c0,0,0,0,0,1.164l30.255,30.255l54.691-60.509L253.63,106.969z"/>
	<path style="fill:#FFFCD5;" d="M287.376,194.242l31.418-31.418c1.164-1.164,1.164-3.491,1.164-4.655s-2.327-2.327-3.491-3.491
		l-40.727-5.818l-66.327,73.309l-3.491,16.291c0,1.164,0,3.491,1.164,4.655c1.164,1.164,3.491,1.164,4.655,0l38.4-20.945
		l33.745,18.618l9.309-10.473L287.376,194.242z"/>
</g>
<g>
</g>
<g>
</g>
<g>
</g>
<g>
</g>
<g>
</g>
<g>
</g>
<g>
</g>
<g>
</g>
<g>
</g>
<g>
</g>
<g>
</g>
<g>
</g>
<g>
</g>
<g>
</g>
<g>
</g>
</svg>
